<svg width="24" height="24" viewBox="0 0 24 24" fill="none" xmlns="http://www.w3.org/2000/svg">
<path d="M10.5429 0.951798C10.4395 0.890035 10.3213 0.857422 10.2009 0.857422C10.0804 0.857422 9.96225 0.890035 9.85886 0.951798C9.77337 1.01954 9.71568 1.11627 9.69673 1.22369C9.67777 1.33111 9.69886 1.44175 9.75601 1.53466C11.8594 5.17408 12.3034 10.1335 9.43029 12.8678C8.32593 11.9393 7.44918 10.7699 6.86743 9.44951C5.80536 10.0393 4.9251 10.9088 4.32219 11.9635C3.71929 13.0182 3.41676 14.2179 3.44743 15.4324C3.49091 16.5031 3.74811 17.5544 4.20389 18.5243C4.65967 19.4942 5.30483 20.3631 6.1014 21.08C6.89798 21.7969 7.82989 22.3472 8.8423 22.6986C9.8547 23.05 10.9272 23.1953 11.9966 23.1261C17.5011 23.1261 20.3571 19.7078 20.544 15.4324C20.7669 10.3032 17.1257 3.99466 10.5429 0.951798Z" stroke="#222222" stroke-width="1.71429" stroke-linecap="round" stroke-linejoin="round"/>
</svg>
