<svg width="19" height="18" viewBox="0 0 19 18" fill="none" xmlns="http://www.w3.org/2000/svg">
<rect width="19" height="18" rx="9" fill="white"/>
<path d="M12.66 9.662C12.66 10.418 12.578 11.076 12.414 11.636C12.254 12.192 12.03 12.652 11.742 13.016C11.458 13.38 11.12 13.652 10.728 13.832C10.34 14.008 9.92 14.096 9.468 14.096C9.016 14.096 8.596 14.008 8.208 13.832C7.824 13.652 7.49 13.38 7.206 13.016C6.922 12.652 6.7 12.192 6.54 11.636C6.38 11.076 6.3 10.418 6.3 9.662C6.3 8.902 6.38 8.244 6.54 7.688C6.7 7.132 6.922 6.672 7.206 6.308C7.49 5.944 7.824 5.674 8.208 5.498C8.596 5.318 9.016 5.228 9.468 5.228C9.92 5.228 10.34 5.318 10.728 5.498C11.12 5.674 11.458 5.944 11.742 6.308C12.03 6.672 12.254 7.132 12.414 7.688C12.578 8.244 12.66 8.902 12.66 9.662ZM11.13 9.662C11.13 9.034 11.084 8.514 10.992 8.102C10.9 7.69 10.776 7.362 10.62 7.118C10.468 6.874 10.292 6.704 10.092 6.608C9.892 6.508 9.684 6.458 9.468 6.458C9.256 6.458 9.05 6.508 8.85 6.608C8.654 6.704 8.48 6.874 8.328 7.118C8.176 7.362 8.054 7.69 7.962 8.102C7.874 8.514 7.83 9.034 7.83 9.662C7.83 10.29 7.874 10.81 7.962 11.222C8.054 11.634 8.176 11.962 8.328 12.206C8.48 12.45 8.654 12.622 8.85 12.722C9.05 12.818 9.256 12.866 9.468 12.866C9.684 12.866 9.892 12.818 10.092 12.722C10.292 12.622 10.468 12.45 10.62 12.206C10.776 11.962 10.9 11.634 10.992 11.222C11.084 10.81 11.13 10.29 11.13 9.662Z" fill="black"/>
</svg>
