<svg width="19" height="18" viewBox="0 0 19 18" fill="none" xmlns="http://www.w3.org/2000/svg">
<rect width="19" height="18" rx="9" fill="#E50000"/>
<path d="M7.98 7.928C7.98 8.412 8.104 8.782 8.352 9.038C8.604 9.29 8.96 9.416 9.42 9.416C9.66 9.416 9.874 9.378 10.062 9.302C10.25 9.226 10.408 9.122 10.536 8.99C10.664 8.858 10.76 8.702 10.824 8.522C10.892 8.342 10.926 8.148 10.926 7.94C10.926 7.704 10.89 7.494 10.818 7.31C10.746 7.122 10.644 6.964 10.512 6.836C10.38 6.708 10.222 6.61 10.038 6.542C9.858 6.474 9.66 6.44 9.444 6.44C9.22 6.44 9.018 6.478 8.838 6.554C8.658 6.626 8.504 6.728 8.376 6.86C8.248 6.992 8.15 7.15 8.082 7.334C8.014 7.514 7.98 7.712 7.98 7.928ZM9.948 10.634C10.016 10.55 10.08 10.468 10.14 10.388C10.2 10.308 10.258 10.228 10.314 10.148C10.114 10.276 9.894 10.374 9.654 10.442C9.414 10.506 9.162 10.538 8.898 10.538C8.598 10.538 8.304 10.486 8.016 10.382C7.728 10.278 7.472 10.122 7.248 9.914C7.024 9.702 6.842 9.442 6.702 9.134C6.566 8.822 6.498 8.458 6.498 8.042C6.498 7.654 6.57 7.29 6.714 6.95C6.858 6.61 7.06 6.312 7.32 6.056C7.58 5.8 7.892 5.598 8.256 5.45C8.62 5.302 9.022 5.228 9.462 5.228C9.906 5.228 10.304 5.298 10.656 5.438C11.012 5.578 11.314 5.774 11.562 6.026C11.814 6.278 12.006 6.58 12.138 6.932C12.274 7.284 12.342 7.67 12.342 8.09C12.342 8.358 12.318 8.612 12.27 8.852C12.226 9.092 12.162 9.324 12.078 9.548C11.994 9.768 11.892 9.984 11.772 10.196C11.652 10.408 11.518 10.618 11.37 10.826L9.384 13.658C9.316 13.754 9.214 13.836 9.078 13.904C8.942 13.968 8.788 14 8.616 14H7.254L9.948 10.634Z" fill="white"/>
</svg>
