<svg width="14" height="20" viewBox="0 0 14 20" fill="none" xmlns="http://www.w3.org/2000/svg">
<path d="M5.48128 12.8031C5.0303 15.468 4.48128 18.0234 2.85205 19.3578C2.35027 15.3301 3.59091 12.3045 4.16667 9.09316C3.18449 7.22598 4.28521 3.46718 6.35651 4.39295C8.90552 5.53281 4.14884 11.3357 7.34225 12.0611C10.6765 12.8177 12.0383 5.52793 9.97058 3.15631C6.98306 -0.266196 1.27451 3.07909 1.97683 7.9797C2.14795 9.17821 3.24332 9.54187 2.41444 11.1959C0.502678 10.7159 -0.0677318 9.013 0.00624319 6.74208C0.12389 3.02727 2.96257 0.424953 5.80927 0.0652035C9.40998 -0.390349 12.7888 1.55797 13.2549 5.38324C13.7807 9.70024 11.6301 14.377 7.78075 14.0397C6.73708 13.9488 6.29857 13.3652 5.48128 12.8031Z" fill="#B2B2B2"/>
</svg>
