<svg width="17" height="18" viewBox="0 0 17 18" fill="none" xmlns="http://www.w3.org/2000/svg">
<path d="M1 8.08519C1 4.74541 1 3.07508 1.93493 2.03798C2.86986 1.00089 4.37356 1 7.38177 1H8.97721C11.9854 1 13.4899 1 14.424 2.03798C15.3582 3.07596 15.359 4.74541 15.359 8.08519V9.85649C15.359 13.1963 15.359 14.8666 14.424 15.9037C13.4891 16.9408 11.9854 16.9417 8.97721 16.9417H7.38177C4.37356 16.9417 2.86906 16.9417 1.93493 15.9037C1.0008 14.8657 1 13.1963 1 9.85649V8.08519Z" stroke="#B2B2B2" stroke-width="2"/>
<path d="M11.7688 6.31515C12.4297 6.31515 12.9654 5.72037 12.9654 4.98668C12.9654 4.25298 12.4297 3.6582 11.7688 3.6582C11.108 3.6582 10.5723 4.25298 10.5723 4.98668C10.5723 5.72037 11.108 6.31515 11.7688 6.31515Z" fill="#B2B2B2"/>
<path d="M8.1793 11.6283C9.501 11.6283 10.5725 10.4388 10.5725 8.9714C10.5725 7.50401 9.501 6.31445 8.1793 6.31445C6.85759 6.31445 5.78613 7.50401 5.78613 8.9714C5.78613 10.4388 6.85759 11.6283 8.1793 11.6283Z" stroke="#B2B2B2" stroke-width="2"/>
</svg>
