<svg width="24" height="24" viewBox="0 0 24 24" fill="none" xmlns="http://www.w3.org/2000/svg">
<path d="M3.53125 11.4698V13.5878C3.53112 14.144 3.64056 14.6948 3.85333 15.2088C4.0661 15.7227 4.37803 16.1897 4.7713 16.583C5.16457 16.9764 5.63148 17.2884 6.14535 17.5013C6.65923 17.7142 7.21002 17.8238 7.76625 17.8238H20.4712M3.53125 6.17578H16.2363C16.7926 6.17565 17.3435 6.28513 17.8575 6.49796C18.3714 6.71079 18.8385 7.02281 19.2318 7.41618C19.6252 7.80956 19.9372 8.27658 20.1501 8.79058C20.3629 9.30457 20.4724 9.85546 20.4722 10.4118V12.5288" stroke="#222222" stroke-width="1.5" stroke-linecap="round" stroke-linejoin="round"/>
<path d="M17.2943 14.647L20.4713 17.823L17.2943 21M6.7063 9.353L3.5293 6.176L6.7063 3" stroke="#222222" stroke-width="1.5" stroke-linecap="round" stroke-linejoin="round"/>
</svg>
